<?xml version="1.0" encoding="UTF-8" standalone="no"?>
<svg width="105" height="80" xmlns="http://www.w3.org/2000/svg" xmlns:xlink="http://www.w3.org/1999/xlink">
<defs>
  <circle x="0.5" y="0.5" r="1.5" style="fill:blue;stroke:blue;" id="junction"/>
</defs>
<path d="M52.5,15.5 v60" stroke="green" fill="none"/>
<path d="M52.5,15.5 63,35 72,55 80,75" stroke="green" fill="none"/>
<path d="M52.5,15.5 41,35 32,55 24,75" stroke="green" fill="none"/>
<path d="M22.5,55.5 10,75" stroke="green" fill="none"/>
<path d="M42.5,55.5 38,75" stroke="green" fill="none"/>
<path d="M62.5,55.5 66,75" stroke="green" fill="none"/>
<path d="M82.5,55.5 94,75" stroke="green" fill="none"/>
<!-- -->
<use xlink:href="#junction" transform="translate(52,15)"/>

<use xlink:href="#junction" transform="translate(41,35)"/>
<use xlink:href="#junction" transform="translate(52,35)"/>
<use xlink:href="#junction" transform="translate(63,35)"/>

<use xlink:href="#junction" transform="translate(22,55)"/>
<use xlink:href="#junction" transform="translate(32,55)"/>
<use xlink:href="#junction" transform="translate(42,55)"/>
<use xlink:href="#junction" transform="translate(52,55)"/>
<use xlink:href="#junction" transform="translate(62,55)"/>
<use xlink:href="#junction" transform="translate(72,55)"/>
<use xlink:href="#junction" transform="translate(82,55)"/>


<use xlink:href="#junction" transform="translate(3,75)"/>
<use xlink:href="#junction" transform="translate(10,75)"/>
<use xlink:href="#junction" transform="translate(17,75)"/>
<use xlink:href="#junction" transform="translate(24,75)"/>
<use xlink:href="#junction" transform="translate(31,75)"/>
<use xlink:href="#junction" transform="translate(38,75)"/>
<use xlink:href="#junction" transform="translate(45,75)"/>

<use xlink:href="#junction" transform="translate(52,75)"/>

<use xlink:href="#junction" transform="translate(59,75)"/>
<use xlink:href="#junction" transform="translate(66,75)"/>
<use xlink:href="#junction" transform="translate(73,75)"/>
<use xlink:href="#junction" transform="translate(80,75)"/>
<use xlink:href="#junction" transform="translate(87,75)"/>
<use xlink:href="#junction" transform="translate(94,75)"/>
<use xlink:href="#junction" transform="translate(101,75)"/>
</svg>